<svg id="Layer_1" data-name="Layer 1" xmlns="http://www.w3.org/2000/svg" viewBox="0 0 487.56 487.65"><defs><style>.cls-1{fill:#09a4d2;}</style></defs><title>todo-favicon</title><path class="cls-1" d="M660.62,534.67C650.81,477.31,624,429.12,580,391.39c-59.65-51.14-129.25-69.79-206.19-54.93C298.67,351,242.6,393.61,205.69,460.65,180.8,505.84,173.55,554.77,178,605.71c.7,8.08,6.56,29.23,7.27,32,11.05,42.81,32.85,79.25,64,110.47s68.16,51.81,110.5,63.12a227.74,227.74,0,0,0,74.2,7.37C488,815,536.31,796.45,577.82,761.11A244,244,0,0,0,650.5,656c2.64-7.35,9.21-27.1,9.21-27.1a3,3,0,0,0,.46-.87C665.24,596.94,665.94,565.82,660.62,534.67Zm-93.28-22.9q-91.94,91.8-183.71,183.74c-2.36,2.36-3.68,2.76-6.26.16Q332.81,650.84,288,606.21a10.11,10.11,0,0,1-.14-14.11c11.29-11.32,22.7-22.52,33.85-34,2.63-2.71,4-2,6.24.26,16.28,16.45,32.77,32.71,49,49.23,2.84,2.9,4.25,2.59,6.93-.1q71.42-71.67,143-143.23c2.95-3,4.46-3.47,7.64-.15,10.7,11.19,21.78,22,32.78,32.93,2.09,2.07,4.14,4,2.91,7C571,507.52,569.49,509.62,567.34,511.77Z" transform="translate(-176.74 -331.5)"/></svg>